<?xml version="1.0" encoding="UTF-8"?>
<svg id="_レイヤー_1" data-name="レイヤー_1" xmlns="http://www.w3.org/2000/svg" version="1.1" viewBox="0 0 449.77 111.63">
  <!-- Generator: Adobe Illustrator 30.5.1, SVG Export Plug-In . SVG Version: 2.1.4 Build 3)  -->
  <defs>
    <style>
      .st0 {
        fill: #050b26;
      }
    </style>
  </defs>
  <g>
    <path class="st0" d="M232.28,33.48v9.68h-20.55v10.5h19.22v9.68h-19.22v11.83h21.14v10.05h-32.3v-51.75h31.71Z"/>
    <path class="st0" d="M261.56,51.29h.3l5.03-9.76,5.1-8.06h11.98v1.63l-15.6,22.77,17.37,25.8v1.55h-11.61l-6.73-9.98-5.54-9.68h-.37l-5.69,9.98-6.43,9.68h-11.75v-1.55l17.45-25.8-15.67-22.77v-1.63h12.05l5.4,8.5,4.73,9.31Z"/>
    <path class="st0" d="M287.95,59.42c0-8.23,2.61-14.72,7.84-19.48,5.22-4.76,11.43-7.08,18.63-6.99,5.72,0,10.84,1.56,15.38,4.69,4.53,3.13,7.37,7.7,8.5,13.71h-10.72c-2.22-5.62-6.6-8.43-13.16-8.43-4.58,0-8.28,1.52-11.09,4.55-2.81,3.03-4.21,7.01-4.21,11.94,0,4.53,1.4,8.38,4.21,11.53,2.81,3.15,6.48,4.73,11.01,4.73,3.3,0,6.16-.79,8.58-2.37,2.41-1.58,4.04-3.89,4.88-6.95h10.64c-1.03,6.41-3.82,11.24-8.35,14.49-4.54,3.25-9.76,4.88-15.67,4.88-3.45,0-6.75-.58-9.91-1.74-3.15-1.16-5.96-2.81-8.43-4.95-2.46-2.14-4.44-4.92-5.91-8.32-1.48-3.4-2.22-7.17-2.22-11.31Z"/>
    <path class="st0" d="M397.06,59.35c0,7.89-2.47,14.32-7.39,19.29-4.93,4.98-11.31,7.47-19.15,7.47-7.34,0-13.57-2.38-18.67-7.13-5.1-4.76-7.65-11.3-7.65-19.63,0-5.57,1.27-10.42,3.81-14.56,2.54-4.14,5.79-7.19,9.76-9.17,3.97-1.97,8.29-2.96,12.97-2.96,3.45,0,6.73.59,9.83,1.77,3.1,1.18,5.9,2.86,8.39,5.03,2.49,2.17,4.46,4.98,5.91,8.43,1.45,3.45,2.18,7.27,2.18,11.46ZM355.37,59.35c0,5.37,1.45,9.49,4.36,12.35,2.91,2.86,6.55,4.29,10.94,4.29s7.98-1.43,10.94-4.29c2.96-2.86,4.44-6.97,4.44-12.35s-1.48-9.28-4.44-12.16c-2.96-2.88-6.58-4.32-10.87-4.32s-7.98,1.44-10.94,4.32c-2.96,2.88-4.44,6.94-4.44,12.16Z"/>
    <polygon class="st0" points="177.51 33.48 177.51 63.1 150.77 33.48 144.98 33.48 144.98 85.22 156 85.22 156 55.29 183.08 85.22 188.6 85.22 188.6 33.48 177.51 33.48"/>
    <polygon class="st0" points="449.77 33.48 438.68 33.48 438.68 63.1 411.95 33.48 406.15 33.48 406.15 85.22 417.17 85.22 417.17 55.29 444.25 85.22 449.77 85.22 449.77 33.48"/>
  </g>
  <g>
    <path class="st0" d="M17.16,16.42l-6.93,4C3.9,24.07,0,30.83,0,38.14v35.35c0,7.31,3.9,14.07,10.23,17.72l6.93,4V16.42Z"/>
    <path class="st0" d="M65.28,58.44V5.03l-3.97-2.29c-6.33-3.66-14.13-3.66-20.46,0l-20.55,11.87,44.99,43.83Z"/>
    <path class="st0" d="M37.89,58.42v48.76l2.95,1.71c6.33,3.66,14.13,3.66,20.46,0l20.15-11.63-43.57-38.83Z"/>
    <path class="st0" d="M91.92,20.42l-5.8-3.35v77.49l5.8-3.35c6.33-3.66,10.23-10.41,10.23-17.72v-35.35c0-7.31-3.9-14.07-10.23-17.72Z"/>
  </g>
</svg>