<?xml version="1.0" encoding="UTF-8"?>
<svg id="Dimensions" xmlns="http://www.w3.org/2000/svg" version="1.1" viewBox="0 0 470.74 483">
  <defs>
    <style>
      .st0 {
        fill: #14b8a6;
      }
    </style>
  </defs>
  <path class="st0" d="M263.61,288.83l85.99,176.15c5.4,11.05,16.31,18.02,28.24,18.02h61.18c23.62,0,38.93-25.9,28.24-47.79L263.61,18.02c-11.73-24.03-44.75-24.03-56.48,0L3.47,435.21c-10.69,21.89,4.62,47.79,28.24,47.79h61.19c11.93,0,22.85-6.97,28.24-18.02l85.99-176.15c11.73-24.03,44.75-24.03,56.48,0Z"/>
  <path class="st0" d="M213.84,347.67l-42.34,86.74c-10.86,22.25,4.7,48.59,28.71,48.59h70.31c24.02,0,39.58-26.33,28.71-48.59l-42.34-86.74c-8.75-17.93-34.3-17.93-43.05,0Z"/>
</svg>
